<?xml version="1.0" ?><svg xmlns="http://www.w3.org/2000/svg" xmlns:xlink="http://www.w3.org/1999/xlink" version="1.1" id="Layer_1" viewBox="0 0 64 64" enable-background="new 0 0 64 64" xml:space="preserve"><path d="M61,26.140625h-4.272644c2.414856-1.8155518,3.9865112-4.6949463,3.9865112-7.9418945  c0-5.4819336-4.4599609-9.9418945-9.9418945-9.9418945c-3.9336548,0-7.3306274,2.3023071-8.9414673,5.624939  c-1.6109619-3.3226318-5.0081787-5.624939-8.9418335-5.624939c-5.4819336,0-9.9418945,4.4599609-9.9418945,9.9418945  c0,3.2469482,1.5716553,6.1263428,3.9865112,7.9418945h-5.7506714c-0.5522461,0-1,0.4477539-1,1v2.8291016h-4.2436523  c-0.5522461,0-1,0.4477539-1,1v4.3138428L3.4829102,28.9643555c-0.3105469-0.1713867-0.6865234-0.1660156-0.9912109,0.0141602  S2,29.4858398,2,29.8398438V52.043457c0,0.3540039,0.1870117,0.6811523,0.4916992,0.8613281  C2.6484375,52.9970703,2.8242188,53.043457,3,53.043457c0.1660156,0,0.3325195-0.0415039,0.4829102-0.1245117l11.4560547-6.3187866  v4.3134155c0,0.5522461,0.4477539,1,1,1h4.2436523v2.8295898c0,0.5522461,0.4477539,1,1,1H61c0.5522461,0,1-0.4477539,1-1V27.140625  C62,26.5883789,61.5522461,26.140625,61,26.140625z M50.7719727,10.2568359c4.3793945,0,7.9418945,3.5625,7.9418945,7.9418945  s-3.5625,7.9418945-7.9418945,7.9418945c-4.3789062,0-7.9414062-3.5625-7.9414062-7.9418945  S46.3930664,10.2568359,50.7719727,10.2568359z M44.8167725,26.140625h-5.9727173  c1.2633667-0.9498291,2.2907715-2.1901855,2.9864502-3.624939C42.526123,23.9504395,43.5534668,25.1907959,44.8167725,26.140625z   M24.9467773,18.1987305c0-4.3793945,3.5625-7.9418945,7.9418945-7.9418945s7.9418945,3.5625,7.9418945,7.9418945  s-3.5625,7.9418945-7.9418945,7.9418945S24.9467773,22.578125,24.9467773,18.1987305z M4,50.3500977V31.5336914  l10.9389648,6.0336304v6.7491455L4,50.3500977z M16.9389648,49.9135742V31.9697266h3.2436523v17.9438477H16.9389648z M60,53.7431641  H22.1826172v-2.8295898V30.9697266V28.140625H60V53.7431641z"/><path d="M32.8886719,13.8452148c-2.4003906,0-4.3535156,1.953125-4.3535156,4.3535156s1.953125,4.3535156,4.3535156,4.3535156  s4.3535156-1.953125,4.3535156-4.3535156S35.2890625,13.8452148,32.8886719,13.8452148z M32.8886719,20.5522461  c-1.2978516,0-2.3535156-1.0556641-2.3535156-2.3535156s1.0556641-2.3535156,2.3535156-2.3535156  s2.3535156,1.0556641,2.3535156,2.3535156S34.1865234,20.5522461,32.8886719,20.5522461z"/><path d="M50.7719727,22.5522461c2.4003906,0,4.3535156-1.953125,4.3535156-4.3535156s-1.953125-4.3535156-4.3535156-4.3535156  s-4.3535156,1.953125-4.3535156,4.3535156S48.371582,22.5522461,50.7719727,22.5522461z M50.7719727,15.8452148  c1.2978516,0,2.3535156,1.0556641,2.3535156,2.3535156s-1.0556641,2.3535156-2.3535156,2.3535156  s-2.3535156-1.0556641-2.3535156-2.3535156S49.4741211,15.8452148,50.7719727,15.8452148z"/></svg>