<?xml version="1.0" encoding="UTF-8"?>
<svg viewBox="0 0 744.09 1052.4" xmlns="http://www.w3.org/2000/svg"  xmlns:xlink="http://www.w3.org/1999/xlink">
 <defs>
  <linearGradient id="l">
   <stop stop-color="#fffff2" offset="0"/>
   <stop stop-color="#f2f2f2" stop-opacity="0" offset="1"/>
  </linearGradient>
  <linearGradient id="a">
   <stop stop-color="#fff" offset="0"/>
   <stop stop-color="#000200" offset="1"/>
  </linearGradient>
  <radialGradient id="n" cx="-39.186" cy="828.31" r="25.703" gradientTransform="matrix(1.4913 -.01965 .013184 1.0005 8.3303 -1.1955)" gradientUnits="userSpaceOnUse">
   <stop stop-color="#fff" stop-opacity=".983" offset="0"/>
   <stop stop-color="#000200" offset="1"/>
  </radialGradient>
  <radialGradient id="r" cx="304.31" cy="768.38" r="19.109" gradientTransform="matrix(.55985 -4.1189e-7 1.929e-7 .85594 -152.25 128.56)" gradientUnits="userSpaceOnUse" xlink:href="#a"/>
  <radialGradient id="s" cx="507.58" cy="420.22" r="133.17" gradientTransform="matrix(-1.1277 -.054198 -.074718 1.5546 1450.8 -206.68)" gradientUnits="userSpaceOnUse" xlink:href="#a"/>
  <radialGradient id="t" cx="442.26" cy="490.09" r="133.17" gradientTransform="matrix(-1.7437 -.026372 -.018662 1.127 1686.5 -17.619)" gradientUnits="userSpaceOnUse" xlink:href="#l"/>
  <radialGradient id="m" cx="-25.297" cy="781.09" r="25.956" gradientTransform="matrix(1 0 0 1.0006 -1.2627 36.653)" gradientUnits="userSpaceOnUse" xlink:href="#a"/>
  <radialGradient id="q" cx="545.88" cy="460.04" r="117.4" gradientTransform="matrix(1.2925 -.04302 .078214 2.3499 -715.67 -481.82)" gradientUnits="userSpaceOnUse" xlink:href="#a"/>
  <radialGradient id="u" cx="545.88" cy="460.04" r="117.4" gradientTransform="matrix(-1.289 -.10502 -.19094 2.3435 1598.3 -563.74)" gradientUnits="userSpaceOnUse" xlink:href="#a"/>
  <radialGradient id="p" cx="442.26" cy="490.09" r="133.17" gradientTransform="matrix(.78022 1.5596 -1.0074 .50574 -85.905 -472.48)" gradientUnits="userSpaceOnUse" xlink:href="#l"/>
  <radialGradient id="o" cx="507.58" cy="420.22" r="133.17" gradientTransform="matrix(.53803 .9925 -1.3683 .74174 186.69 -342.13)" gradientUnits="userSpaceOnUse" xlink:href="#a"/>
 </defs>
 <g stroke-width=".458">
  <path d="m338.12 555.28c3.8376-12.445-6.2984-26.129-22.802-30.974l-2.1706 7.0392c10.629 3.305 16.564 13.997 13.38 24.323l-10.377 33.652c-3.184 10.326-14.271 16.34-25.118 13.743l-2.1746 7.0521c16.679 4.2741 33.012-2.1362 36.849-14.581l12.413-40.253z"/>
  <path d="m337.34 556.07c5.6453-11.514-7.4542-27.233-21.696-31.448l-1.1296 5.6323c8.1059 3.8419 10.624 4.6182 16.617 13.821 8.8333 13.565-10.135 16.682-8.9334 45.778 0.86386 12.071-21.843 16.031-31.221 13.827l-0.4438 5.6028c14.412 3.6598 28.582-0.95929 32.313-13.057 0 0 2.8774-11.198 14.494-40.156z" fill="#fff"/>
 </g>
 <g transform="matrix(.61264 -.12071 .12071 .61264 233.48 43.359)" stroke-width=".505">
  <path transform="matrix(.61264 -.12071 .12071 .61264 233.48 43.359)" d="m-24.019 757.14c-14.194 0-25.719 11.524-25.719 25.719 0 14.194 11.524 25.718 25.719 25.718 14.194 0 25.688-11.524 25.688-25.718 0-14.195-11.493-25.719-25.688-25.719zm-0.1562 7.094c10.348 0 18.75 8.402 18.75 18.75 0 10.347-8.4021 18.75-18.75 18.75s-18.719-8.403-18.719-18.75c0-10.348 8.3709-18.75 18.719-18.75z" fill="url(#m)" stroke="#000"/>
  <path transform="matrix(.61264 -.12071 .12071 .61264 233.48 43.359)" d="m-24.019 757.14c-14.194 0-25.707 13.882-23.951 27.486 1.1418 8.844 5.6465 21.379 25.214 23.446 14.304 1.511 24.425-11.019 24.425-25.213 0-14.195-11.493-25.719-25.688-25.719zm-0.1562 7.094c10.348 0 19.195 8.411 18.75 18.75-1.0102 23.479-9.6776 25.346-18.498 21.527-14.213-6.153-18.719-11.432-19.981-21.022-1.3508-10.26 9.381-19.255 19.729-19.255z" fill="url(#n)"/>
 </g>
 <g stroke="#000">
  <rect transform="matrix(.61264 -.12071 .12071 .61264 233.48 43.359)" x="-32.005" y="752.66" width="13.763" height="16.289" fill="#fff" stroke-width=".8"/>
  <path d="m316.91 517.73c-2.467 4.3423-1.3507 8.7661-4.3199 9.3512-2.9692 0.58502-1.7945-2.989-7.1125-7.1915-2.5777-2.037 2.0485-2.4904 5.0177-3.0754 2.9692-0.58502 8.8718-3.4092 6.4147 0.91571z" stroke-width=".602"/>
 </g>
 <g fill-rule="evenodd">
  <path d="m276.56 281.18c-48.948-35.687-103.08-16.867-130.06 34.825-10.256 19.091-14.168 15.026-31.63 12.534-8.5488-1.2199-0.44461 15.07 1.7705 22.577 2.5608 8.6784 10.924 17.968 15.461 25.795 16.239 28.011 53.46 65.109 83.562 77.712 4.2156 1.7649 4.9619 0.68173 12.75-10.411-1.2294-0.89798-5.2765 0.08963-6.5291-0.86792s0.2892-3.8602-0.98064-4.8734c-1.2698-1.0131-4.2638 1.9219-5.5449 0.85715s-0.84938-6.1294-2.1358-7.2418c-1.2864-1.1125-4.6823 0.89517-5.9682-0.26099s-0.4617-5.4761-1.741-6.6721-4.619 0.95096-5.8859-0.28079c-1.2668-1.2318-0.46085-5.8421-1.7093-7.1057s-4.4651 1.2572-5.6891-0.034271c-1.2241-1.2915-0.4556-6.3952-1.6494-7.7107s-4.8736 0.80609-6.0312-0.5293 0.20724-6.1278-0.90813-7.4792-5.7154 0.25415-6.7827-1.1094c-1.0672-1.3635 1.3983-5.696 0.3851-7.0676 0.64447 0.12012-4.9846 1.7062-5.9378 0.33044s0.36912-7.5133-0.51816-8.8893c-8.978-15.738-9.3503-20.273-9.6093-37.925 0.32997-45.079 70.11-85.04 96.518-41.71 4.3038 6.6409 11.645 14.206 20.376 12.266 9.9292-2.2064 15.273-4.2702 14.763-13.823-0.72076-13.502-7.4892-16.804-16.278-22.906z" fill="url(#o)" stroke="#000"/>
  <path d="m274.2 287.88c-45.28-32.921-103.88-21.528-124.1 31.345-9.5532 17.702-9.7009 15.171-25.879 12.907-7.9205-1.1083-0.44956 13.955 1.5849 20.9 2.3519 8.0291 10.08 16.61 14.266 23.846 14.981 25.895 49.388 60.153 77.258 71.747 3.9029 1.6237-4.8704 7.9394 2.376-2.3505-2.2746-1.6568-6.3013-1.9702-8.5634-3.8832-2.262-1.913-2.7594-5.4258-4.9897-7.5535-2.2303-2.1278-5.5405-1.8627-7.7199-4.1636-2.1795-2.3009-3.2282-7.1677-5.3377-9.6002-2.1094-2.4325-7.2455-3.1798-9.2658-5.7024s-1.9757-6.3862-3.8876-8.9573c-1.912-2.5711-7.3951-5.1228-9.1797-7.7009-1.7845-2.5781 0.21904-5.8823-1.4189-8.4259-8.2823-14.55-12.753-23.855-12.949-40.199 0.41789-41.74 63.262-92.853 101.91-47.419 3.9726 6.1382 13.489 17.414 21.586 15.596 9.2085-2.0676 9.793-0.37265 9.3441-9.2168-0.63449-12.499-6.8997-15.54-15.03-21.169z" fill="url(#p)"/>
  <path d="m265.13 307.57c6.3257 13.961-5.1155 17.141 26.822 6.037 23.469-8.1596 47.162 4.4717 56.702 22.559 12.391 23.492 13.39 52.742-4.8995 76.32-14.868 19.166-40.589 25.175-64.04 27.25-16.074 1.4227-23.211 21.753-18.583 36.716 3.5445 11.46 1.37 27.582 13.22 34.255 12.833 7.2261 30.218-1.5666 44.04-3.5089 22.798-3.2035 26.058-5.0876 26.481-18.063 0.69992-21.488-8.231-27.341 13.616-48.081 16.87-16.014 22.978-41.184 22.7-65.5-6.4571-63.643-37.263-93.576-103.04-87.243-15.655 2.1056-24.149-5.3016-13.021 19.258z" fill="url(#q)" stroke="#000"/>
  <path d="m269.64 309.31c5.5163 15.145 6.0254 3.2288 20.376-0.49152 23.429-6.0739 49.826 4.2901 62.039 26.85 26.913 66.211 0.86484 96.968-67.745 111.26-19.607 8.6386-18.257 10.674-13.508 29.737 2.7152 10.898-5.0479 23.844 6.4313 30.011 12.432 6.6789 30.149-1.1919 43.61-3.1131 22.202-3.1688 16.986-8.446 17.492-20.61 0.83771-20.144-27.09-11.445 3.9646-38.162 22.152-19.058 33.312-35.002 31.769-76.309-1.0469-28.038-14.562-48.474-18.668-54.19-14.573-20.285-49.574-26.437-70.233-22.382-15.078 2.9603-27.013-14.139-15.527 17.394z" stroke-width=".955"/>
 </g>
 <g fill="#fff" stroke-width=".8">
  <path d="m283.09 300.92a7.1168 7.1168 0 1 1 -14.234 2.8046 7.1168 7.1168 0 1 1 14.234 -2.8046z"/>
  <path d="m337.22 490.83a7.1168 7.1168 0 1 1 -14.234 2.8046 7.1168 7.1168 0 1 1 14.234 -2.8046z"/>
  <path d="m290.08 496.26a7.1168 7.1168 0 1 1 -14.234 2.8046 7.1168 7.1168 0 1 1 14.234 -2.8046z"/>
  <path d="m292 473.38a7.1168 7.1168 0 1 1 -14.234 2.8046 7.1168 7.1168 0 1 1 14.234 -2.8046z"/>
  <path d="m325.84 466.11a7.1168 7.1168 0 1 1 -14.234 2.8045 7.1168 7.1168 0 1 1 14.234 -2.8045z"/>
 </g>
 <g stroke-width=".458">
  <path d="m308.26 577.15c-12.641-3.1317-25.734 7.7577-29.643 24.507l7.1501 1.7714c2.7022-10.798 13.044-17.324 23.532-14.726l34.182 8.4684c10.488 2.5984 17.116 13.329 15.134 24.305l7.1632 1.7747c3.3295-16.893-3.9891-32.839-16.63-35.971l-40.888-10.13z"/>
  <path d="m309.12 578.31c-11.813-4.989-26.771 8.9738-30.178 23.43l6.961 1.1576c3.38-8.3091 2.7394-11.214 11.591-17.714 13.047-9.582 17.225 9.1811 46.208 6.3452 12.003-1.5412 18.046 20.931 16.373 30.419l4.8758 0.055c2.8436-14.596-2.634-28.434-14.922-31.479 0 0-11.343-2.2431-40.908-12.213z" fill="#fff"/>
  <path d="m349.79 581.79c-11.462 6.1832-13.829 23.047-5.4578 38.073l6.483-3.4974c-5.2617-9.8087-1.9972-21.594 7.5128-26.724l30.993-16.72c9.5099-5.1302 21.632-1.6456 27.546 7.811l6.4949-3.5038c-8.8964-14.742-25.037-21.622-36.498-15.439l-37.073 20z"/>
  <path d="m351.19 582.07c-12.098 4.252-13.778 24.645-6.5786 37.635l4.6777-2.9894c-3.0863-8.4227-4.261-10.976-2.0817-21.74 3.2124-15.866 18.923-4.7891 38.466-26.379 7.8471-9.2128 27.894 3.0532 33.036 11.2l2.1385-2.571c-7.7108-12.714-20.027-19.638-31.169-13.628 0 0-9.9032 5.9678-38.489 18.471z" fill="#fff"/>
 </g>
 <g transform="matrix(.63113 .40559 -.41499 .61684 541.97 -33.576)" stroke-width=".505">
  <path d="m308.84 744.29c-14.194 0-25.719 11.524-25.719 25.719 0 14.194 11.524 25.719 25.719 25.719 14.194 0 25.688-11.524 25.688-25.719 0-14.194-11.493-25.719-25.688-25.719zm-0.1562 7.0938c10.348 0 18.75 8.4021 18.75 18.75s-8.4021 18.75-18.75 18.75-18.719-8.4022-18.719-18.75 8.3709-18.75 18.719-18.75z" fill="url(#m)" stroke="#000"/>
  <path d="m308.84 744.29c-14.194 0-25.707 13.882-23.951 27.486 1.1418 8.8441 5.6465 21.379 25.214 23.446 14.304 1.5107 24.425-11.019 24.425-25.214 0-14.194-11.493-25.719-25.688-25.719zm-0.1562 7.0938c10.348 0 19.195 8.4117 18.75 18.75-1.0101 23.48-9.6776 25.346-18.498 21.528-14.213-6.1534-18.719-11.433-19.981-21.023-1.3508-10.259 9.381-19.255 19.729-19.255z" fill="url(#n)"/>
 </g>
 <g stroke="#000">
  <rect transform="matrix(.63113 .40559 -.41499 .61684 541.97 -33.576)" x="300.85" y="739.81" width="13.763" height="16.289" fill="#fff" stroke-width=".8"/>
  <path d="m427.38 562.81c-5.8094 1.6201-8.595 6.2768-11.654 4.3112-3.0588-1.9657 0.98398-4.008-0.045044-11.958-0.49875-3.8536 3.8788-0.40424 6.9376 1.5615s10.547 4.4721 4.7612 6.0858z" fill="url(#r)" stroke-width=".602"/>
 </g>
 <g fill-rule="evenodd">
  <path d="m594.65 342.94c46.734 55.163 28.044 120.41-32.358 156.01-22.286 13.492-17.086 17.813-12.777 38.238 2.1097 9.9992-18.162 1.6219-27.391-0.44537-10.669-2.39-22.508-11.582-32.297-16.367-35.03-17.123-82.594-58.344-100.05-92.949-2.445-4.8461-1.1928-5.8056 11.62-15.804 18.813 22.167 47.384 47.707 75.022 62.857 19.671 9.4486 25.601 10.412 46.933 9.432 54.403-3.6716 97.453-88.925 43.169-116.93-8.3388-4.5952-18.02-12.707-16.328-23.151 1.9242-11.878 4.018-18.334 15.59-18.428 16.355-0.13254 20.847 7.6141 28.869 17.541z" fill="url(#s)" stroke="#000"/>
  <path d="m586.74 346.21c43.122 51.035 33.73 121.01-28.6 148.73-20.661 12.562-17.594 12.552-13.656 31.479 1.9282 9.266-16.815 1.5466-25.352-0.34851-9.8694-2.1907-20.806-10.686-29.854-15.099-32.382-15.793-76.307-53.901-92.382-85.944-2.2512-4.4874-1.0897-5.38 10.794-14.68 17.359 20.508 37.566 49.872 63.111 63.854 18.184 8.7141 30.287 13.382 50.035 12.423 50.365-3.5322 106.97-78.277 49.233-120.57-7.7071-4.2408-22.031-14.65-20.439-24.337 1.8104-11.017-0.27966-11.584 10.432-11.698 15.139-0.16135 19.277 7.0105 26.679 16.195z" fill="url(#t)"/>
  <path d="m580.45 356.76c-14.058 11.816-3.1291 20.927-32.501-6.8951-21.583-20.444-54.015-18.71-73.704-4.0725-25.571 19.01-41.582 49.873-33.542 84.266 6.5362 27.958 31.687 47.219 56.353 61.131 16.907 9.5362 14.369 34.89 1.6622 48.626-9.7319 10.52-15.567 28.889-31.968 30.137-17.762 1.3517-32.349-16.739-46.521-25.71-23.375-14.797-25.991-18.441-19.838-32.563 10.189-23.386 22.971-25.211 9.5808-58.334-10.339-25.577-4.2055-55.606 8.4985-81.536 39.536-65.016 88.592-81.754 157.52-42.184 16.1 10.06 29.194 6.3511 4.4641 27.136z" fill="url(#u)" stroke="#000"/>
  <path d="m574.62 356.38c-13.774 13.488-8.2561 0.45871-22.101-10.682-22.604-18.188-56.844-20.232-81.746-2.1315-63.284 57.574-50.394 103.53 17.578 153.05 17.103 19.033 14.585 20.543-0.34589 38.614-8.5355 10.331-6.6212 28.08-22.358 28.971-17.043 0.96509-32.464-16.303-46.251-25.071-22.739-14.462-14.326-17.52-8.6784-30.814 9.3528-22.014 35.553 1.2308 15.111-42.891-14.582-31.473-18.693-54.128 4.0614-97.645 15.446-29.539 40.692-44.712 48.111-48.794 26.33-14.486 67.862-3.6372 88.455 11.006 15.03 10.688 36.841-1.6962 8.1634 26.387z" stroke-width=".955"/>
 </g>
 <path d="m564.14 340.68a7.3232 7.1574 0 1 1 14.184 10.1 7.3232 7.1574 0 1 1 -14.184 -10.1z" fill="#fff" stroke-width=".8"/>
 <g transform="matrix(.63113 .40559 -.41499 .61684 541.97 -33.576)">
  <g fill="#fff" stroke-width=".8">
   <g stroke="#000">
    <path d="m272.65 649.7l2.3214 10.087 0.8929 11.694c-3.1347 2.8734-7.6251 9.4782-7.625 14.062 0 8.6743 7.0444 15.719 15.719 15.719 8.6743 0 15.719-7.0445 15.719-15.719 0-4.2887-4.3901-11.021-7.1786-13.857l-0.1786-11.797 1.7857-10.368-21.455 0.1786z"/>
    <path d="m290.92 685.74a6.8817 6.8817 0 1 1 -13.763 0 6.8817 6.8817 0 1 1 13.763 0z"/>
   </g>
   <path d="m360.5 666.61a11.617 11.617 0 1 1 -23.234 0 11.617 11.617 0 1 1 23.234 0z"/>
   <path d="m362.45 688.24c-7.3946-2.4153-10.584 3.9663-15.997 7.6359-17.094 11.588-10.223 2.8848-21.09 1.075-3.4509-0.57477-10.785 3.0056-9.3361 11.558 1.4493 8.5524 9.7958 10.306 12.568 8.831 9.1066-4.8451 9.5577-13.449 24.689-9.1957 17.11 4.8098 14.506-18.16 9.1657-19.904z" stroke="#000"/>
   <path d="m359.99 725.19a11.617 11.617 0 1 1 -23.234 0 11.617 11.617 0 1 1 23.234 0z"/>
   <path d="m293.83 723.17a11.617 11.617 0 1 1 -23.234 0 11.617 11.617 0 1 1 23.234 0z"/>
   <path d="m360.05 691.77s-15.139 7.3901-17.764 8.5712c-13.525 6.0845-9.671 1.2402-17.535-0.013184-2.4974-0.39801-7.3 2.0816-6.2512 8.0044s8.7277 6.9714 10.61 5.7371c10.126-6.6384 7.1965-10.64 24.233-10.244 3.8445 0.089355 6.7065-8.5939 6.7065-12.055z"/>
  </g>
 </g>
 <g stroke-width=".458">
  <path d="m375.79 626.84c-11.365 6.3431-25.295 3.1312-31.515-7.1704l6.4285-3.5878c4.1806 6.5809 14.866 7.6822 24.296 2.4191l30.732-17.152c9.4299-5.263 14.001-14.88 10.467-21.821l6.4403-3.5945c5.699 10.592 1.2772 24.047-10.088 30.39l-36.761 20.517z"/>
  <path d="m376.42 625.76c-10.306 7.3552-26.452 2.6322-31.852-6.2477l4.6749-3.1006c4.4356 4.6345 5.949 6.8563 15.235 8.4317 13.687 2.3222 14.737-12.044 42.324-19.655 11.481-2.8982 14.272-20.58 11.256-26.594l2.5029-1.8241c4.893 9.1627 3.3707 20.858-7.6777 27.024 0 0-10.284 5.2993-36.462 21.966z" fill="#fff"/>
  <path d="m297.16 627.99c-12.677-2.9485-20.826-14.693-18.502-26.501l7.1706 1.6678c-1.3316 7.682 5.8361 15.683 16.355 18.129l34.28 7.973c10.518 2.4464 20.368-1.5967 22.422-9.1107l7.1837 1.6708c-2.9055 11.672-15.226 18.656-27.903 15.708l-41.005-9.5371z"/>
  <path d="m298.34 627.61c-12.574-1.4872-21.348-15.841-19.372-26.045l6.7811 1.9723c0.16611 6.4129-1.4441 7.9519 4.3687 15.362 8.5683 10.923 19.006 0.99634 44.542 13.916 10.446 5.5762 23.858-6.5563 25.67-13.036l4.4782 2.0418c-2.5406 10.072-12.386 16.918-24.71 14.052 0 0-11.175-2.9943-41.758-8.2634z" fill="#fff"/>
  <path d="m287.85 541.24c3.6567-12.491 15.841-19.967 27.499-16.983l-2.0683 7.0655c-7.5949-1.7615-15.986 4.945-19.02 15.309l-9.8879 33.777c-3.034 10.364 0.44888 20.426 7.8355 22.898l-2.0721 7.0784c-11.49-3.5572-17.77-16.251-14.114-28.742l11.828-40.404z"/>
  <path d="m289 542.6c2.1919-12.289 17.016-20.127 27.093-17.618l-1.0978 4.8926c-6.4121-0.19183-9.1108-0.19122-16.836 5.1174-11.388 7.8253-2.0634 18.646-16.398 43.055-6.1547 9.9694 5.2756 29.68 11.225 24.724l-2.0143 6.7811c-9.913-3.0578-16.124-14.357-12.57-26.324 0 0 3.618-10.83 10.598-40.628z" fill="#fff"/>
 </g>
</svg>
