<?xml version="1.0" ?><svg data-name="Layer 1" id="Layer_1" viewBox="0 0 64 64" xmlns="http://www.w3.org/2000/svg"><path d="M47.98,29.43c-.38-2.26-1.25-4.35-2.57-6.22-.16-.22-.4-.37-.67-.41-.66-.1-1.25-.39-1.71-.85-.46-.46-.75-1.05-.85-1.71-.04-.27-.19-.51-.41-.67-1.86-1.32-3.96-2.19-6.22-2.57-.27-.04-.54,.02-.76,.18-1.07,.79-2.54,.79-3.61,0-.22-.16-.49-.23-.76-.18-2.26,.38-4.35,1.25-6.22,2.57-.22,.16-.37,.4-.41,.67-.1,.66-.39,1.25-.85,1.71s-1.05,.75-1.71,.85c-.27,.04-.51,.19-.67,.41-1.32,1.86-2.19,3.96-2.57,6.22-.04,.27,.02,.54,.18,.76,.39,.54,.6,1.16,.6,1.81s-.21,1.27-.6,1.81c-.16,.22-.23,.49-.18,.76,.38,2.26,1.25,4.35,2.57,6.22,.16,.22,.4,.37,.67,.41,.66,.1,1.25,.39,1.71,.85s.75,1.05,.85,1.71c.04,.27,.19,.51,.41,.67,1.86,1.32,3.96,2.19,6.22,2.57,.06,0,.11,.01,.17,.01,.21,0,.42-.07,.59-.2,1.07-.79,2.54-.79,3.61,0,.22,.16,.49,.23,.76,.18,2.26-.39,4.35-1.25,6.22-2.57,.22-.16,.37-.4,.41-.67,.1-.66,.39-1.25,.85-1.71,.46-.46,1.05-.75,1.71-.85,.27-.04,.51-.19,.67-.41,1.32-1.86,2.19-3.96,2.57-6.22,.05-.27-.02-.54-.18-.76-.39-.54-.6-1.16-.6-1.8s.21-1.27,.6-1.8c.16-.22,.23-.49,.18-.76Zm-2.04,5.18c-.34,1.69-.99,3.26-1.94,4.69-.91,.22-1.72,.67-2.38,1.33-.66,.66-1.11,1.47-1.33,2.38-1.43,.95-3,1.6-4.69,1.94-.79-.49-1.69-.74-2.62-.74s-1.82,.25-2.62,.74c-1.69-.34-3.26-.99-4.69-1.94-.22-.91-.67-1.72-1.33-2.38-.66-.66-1.47-1.11-2.38-1.33-.95-1.43-1.6-3-1.94-4.69,.49-.79,.74-1.69,.74-2.62s-.25-1.82-.74-2.62c.34-1.69,.99-3.26,1.94-4.69,.91-.22,1.72-.67,2.38-1.33,.66-.65,1.11-1.47,1.33-2.38,1.43-.95,3-1.6,4.69-1.94,1.59,.97,3.64,.97,5.23,0,1.69,.34,3.26,.99,4.69,1.94,.22,.91,.67,1.72,1.33,2.38,.66,.66,1.47,1.11,2.38,1.33,.95,1.43,1.6,3,1.94,4.69-.49,.79-.74,1.69-.74,2.62s.25,1.82,.74,2.62Z"/><path d="M33,22c-5.51,0-10,4.49-10,10s4.49,10,10,10,10-4.49,10-10-4.49-10-10-10Zm0,18c-4.41,0-8-3.59-8-8s3.59-8,8-8,8,3.59,8,8-3.59,8-8,8Z"/><path d="M5,31c-.37,0-.71,.2-.88,.53s-.15,.72,.05,1.03l4,6c.19,.28,.5,.45,.83,.45s.65-.17,.83-.45l4-6c.2-.31,.22-.7,.05-1.03s-.51-.53-.88-.53h-.95c.53-11.11,9.71-20,20.95-20v-2c-12.35,0-22.45,9.78-22.97,22h-2c.53-13.32,11.52-24,24.97-24v-2c-14.55,0-26.45,11.57-26.97,26h-1.03Zm6.13,2l-2.13,3.2-2.13-3.2h4.26Z"/><path d="M26.53,56.15c-6.45-1.73-11.84-5.86-15.18-11.65l-1.73,1c5,8.65,14.09,13.49,23.43,13.49,4.26,0,8.57-1.02,12.57-3.14l.52,.89c.18,.31,.51,.5,.87,.5,.01,0,.02,0,.03,0,.37-.01,.7-.23,.86-.56l3.2-6.46c.15-.3,.14-.65-.03-.94s-.47-.48-.8-.5l-7.2-.46c-.37-.02-.72,.16-.91,.47-.19,.31-.2,.71-.02,1.03l.48,.82c-4.65,2.4-9.95,3.01-15.04,1.64-5.42-1.45-9.95-4.93-12.75-9.78l-1.73,1c4.26,7.37,12,11.5,19.96,11.5,3.59,0,7.21-.85,10.58-2.61l1,1.74c-5.58,2.94-11.97,3.66-18.09,2.02Zm22.11-5.46l-1.7,3.44-2.13-3.69,3.83,.25Z"/><path d="M47.35,9.14l.51-.89c.18-.32,.18-.71-.02-1.03-.2-.31-.55-.5-.91-.47l-7.2,.46c-.33,.02-.63,.21-.8,.5s-.18,.64-.03,.94l3.2,6.46c.16,.33,.5,.54,.86,.56,.01,0,.02,0,.03,0,.36,0,.69-.19,.87-.5l.48-.82c4.41,2.83,7.58,7.12,8.94,12.21,1.45,5.42,.71,11.08-2.1,15.94l1.73,1c6.17-10.69,2.75-24.33-7.57-30.9l1-1.73c11.27,7.12,15.02,21.98,8.3,33.63l1.73,1c7.28-12.6,3.2-28.69-9.03-36.36Zm-4.29,3.42l-1.7-3.44,3.83-.25-2.13,3.69Z"/></svg>