<?xml version="1.0" ?><svg data-name="Layer 1" id="Layer_1" viewBox="0 0 100 100" xmlns="http://www.w3.org/2000/svg"><title/><path d="M75.01147,75.021,54.983,75.07715a6.00041,6.00041,0,0,0-5.983,6V94a1,1,0,0,0,2,0V81.07715a3.99971,3.99971,0,0,1,3.98865-4.00006L75.017,77.02094A5.9997,5.9997,0,0,0,81,71.021V60a6.00053,6.00053,0,0,0-6-6H25a4.0003,4.0003,0,0,1-4-4V38.97656a3.99967,3.99967,0,0,1,3.98132-4.00006l20.04682-.09424A6.00061,6.00061,0,0,0,51,28.88232V8.41418l8.29291,8.29291a1,1,0,0,0,1.41424-1.41418L50.70709,5.29285l-.00592-.00391a.995.995,0,0,0-1.3985-.00256l-.00976.00647-10,10a1,1,0,1,0,1.41424,1.41424h-.00006l8.293-8.293L49,28.88232a4,4,0,0,1-3.98132,4l-20.04682.09424a6.00035,6.00035,0,0,0-5.97186,6V50a6.00052,6.00052,0,0,0,6,5.99994H75A4.0003,4.0003,0,0,1,79,60V71.021A3.99913,3.99913,0,0,1,75.01147,75.021Z"/></svg>