<svg width="80" height="80" viewBox="0 0 80 80" fill="none" xmlns="http://www.w3.org/2000/svg">
<path fill-rule="evenodd" clip-rule="evenodd" d="M35.7812 6.49698C23.0495 8.51167 13.3402 18.2895 11.4922 30.9575C11.1859 33.0575 11.1836 36.9139 11.4872 39.0506C11.7802 41.1117 12.548 44.065 13.0069 44.8964C13.9598 46.6223 16.1912 46.7481 17.3798 45.1426C17.8712 44.479 17.892 43.6459 17.4517 42.2526C15.9464 37.4875 15.9698 32.2707 17.5173 27.5781C19.84 20.5348 25.5348 14.84 32.5781 12.5173C37.3331 10.9492 42.6669 10.9492 47.4219 12.5173C53.4255 14.4971 58.4656 18.9029 61.2551 24.6093C63.1255 28.4354 63.9273 32.6246 63.5875 36.7945C63.1427 42.2512 61.2045 46.7089 57.3826 51.0654C55.9022 52.7532 55.6558 53.274 55.8669 54.2709C56.0027 54.9114 56.6139 55.719 57.1878 56.0157C57.7636 56.3134 58.9478 56.3173 59.5164 56.0232C60.0626 55.7407 61.8909 53.7951 63.0155 52.2995C68.2545 45.3315 70.0556 36.1987 67.8601 27.7343C65.5589 18.8615 59.0733 11.574 50.4181 8.13589C49.1301 7.62417 46.9491 7.00808 45.0781 6.62714C43.2803 6.2612 37.7595 6.18386 35.7812 6.49698ZM39.0627 14.6982C38.8478 14.7885 38.5072 15.0165 38.3055 15.2046C37.477 15.9782 37.5 15.6703 37.5 26.0232C37.5 36.6696 37.4705 36.342 38.4958 37.0734C38.9811 37.4195 39.0316 37.4221 45.8684 37.4656L52.7527 37.5092L53.2903 37.1517C53.8809 36.7592 54.5312 35.6315 54.5312 35C54.5312 34.371 53.882 33.2414 53.2972 32.8528C52.773 32.5045 52.7009 32.5 47.6331 32.5H42.5V24.3981V16.2962L42.1484 15.7796C41.955 15.4956 41.6087 15.1237 41.3787 14.9534C40.8944 14.5946 39.6381 14.4562 39.0627 14.6982ZM5.28094 49.0517C2.83969 49.8321 1.05406 51.62 0.310156 54.0285C0.0376563 54.911 0 55.4836 0 58.75C0 62.0032 0.0382812 62.5909 0.306875 63.4601C0.629062 64.5023 1.31031 65.7065 2.00797 66.4665C3.16422 67.7261 5.49484 68.75 7.20578 68.75C7.87719 68.75 10.8528 69.4312 18.125 71.25L28.1212 73.75H53.1386C80.8381 73.75 78.8086 73.8264 79.5734 72.7542C80.3102 71.7212 80.0281 68.5171 78.9948 66.1804C77.7798 63.4331 75.3189 60.9711 72.5748 59.7576C70.4547 58.82 70.847 58.8493 59.2289 58.7568L48.5359 58.6718L48.3503 57.9687C47.4175 54.4342 44.6881 51.245 41.322 49.7564C40.8294 49.5384 39.8556 49.2232 39.1584 49.0561C37.9444 48.7651 37.2173 48.7525 22.0312 48.7595C7.12594 48.7664 6.11828 48.7839 5.28094 49.0517ZM6.81156 53.9126C6.17187 54.104 5.3375 54.9634 5.15562 55.6181C4.95578 56.337 4.95578 61.1629 5.15562 61.8818C5.34703 62.5712 6.17594 63.3932 6.88406 63.5964C7.17875 63.6809 7.86062 63.75 8.39922 63.75C9.14375 63.75 11.7772 64.3498 19.375 66.25L29.3712 68.75H51.9534H74.5358L74.0498 67.7873C73.0328 65.7728 70.8534 64.2467 68.5156 63.9125C67.8331 63.815 60.0267 63.755 47.7556 63.7531C28.165 63.75 28.0872 63.7487 27.5212 63.4268C26.5934 62.8992 26.3281 62.4153 26.3281 61.25C26.3281 60.4198 26.3969 60.1428 26.7047 59.7325C27.4536 58.7343 27.3112 58.75 35.69 58.75H43.2858L42.7998 57.7873C41.7828 55.7728 39.6034 54.2467 37.2656 53.9125C35.9072 53.7182 7.46078 53.7184 6.81156 53.9126Z" fill="#FFFEFE"/>
</svg>
